#!OML:ASF H:\GeneralSubjects\Female5\Project 1\Capture day 1\Session 1\Female5.ASF
:FULLY-SPECIFIED
:DEGREES
339
root -35.2848 15.5961 2.74672 -177.218 28.6792 175.141
lowerback 7.34993 -1.28382 -13.8669
upperback -9.83989 -2.28509 7.03896
thorax -14.1363 1.23501 16.4376
lowerneck -23.5625 1.62843 -0.963064
upperneck 40.6886 7.63649 -3.29538
head 20.0852 3.3008 0.697775
rclavicle -1.31198e-013 5.725e-014
rhumerus 16.8106 62.3874 -36.0666
rradius 139.59
rwrist -41.2285
rhand 7.17167 -12.0925
rfingers 7.12502
rthumb 32.4391 -39.2094
lclavicle -1.31198e-013 5.725e-014
lhumerus -66.0396 30.1773 53.5235
lradius 33.0107
lwrist -2.35083
lhand -20.6954 37.7811
lfingers 7.12502
lthumb 5.66846 67.6853
rfemur -22.3913 39.2735 -6.77006
rtibia 1.32171
rfoot -40.3493 -37.138
rtoes -2.94173
lfemur 8.44424 -21.2592 -40.5564
ltibia -5.74901
lfoot -13.3085 15.5612
ltoes -67.3574
340
root -35.3088 15.5909 2.73161 -176.941 28.8871 175.303
lowerback 7.13529 -1.38124 -13.6902
upperback -9.96738 -2.35703 7.00267
thorax -14.1255 1.19119 16.2898
lowerneck -23.334 1.6199 -0.946612
upperneck 40.7168 7.43767 -2.9461
head 20.0016 3.28388 0.813566
rclavicle -4.29375e-014 3.97569e-014
rhumerus 15.4596 62.6558 -37.4458
rradius 139.553
rwrist -40.6224
rhand 6.46334 -12.2381
rfingers 7.12502
rthumb 31.7647 -39.491
lclavicle -4.29375e-014 3.97569e-014
lhumerus -65.092 29.1323 55.4103
lradius 33.5803
lwrist -1.40601
lhand -20.8073 38.1636
lfingers 7.12502
lthumb 5.56045 68.0706
rfemur -22.6622 38.7994 -6.88265
rtibia 1.17096
rfoot -40.3466 -37.0809
rtoes -3.22244
lfemur 8.42877 -21.423 -40.4469
ltibia -6.25378
lfoot -12.7773 15.9035
ltoes -67.4746
341
root -35.3293 15.5886 2.71419 -176.624 29.1751 175.479
lowerback 6.92199 -1.4462 -13.5003
upperback -10.1581 -2.37669 6.95655
thorax -14.2122 1.18993 16.1204
lowerneck -23.0422 1.58482 -0.975262
upperneck 40.8322 7.25631 -2.59251
head 19.9574 3.2764 0.947
rclavicle -6.87795e-014 -6.04305e-014
rhumerus 13.8812 63.1182 -39.0382
rradius 139.405
rwrist -39.8076
rhand 5.48402 -12.1327
rfingers 7.12502
rthumb 30.8315 -39.5662
lclavicle -6.87795e-014 -6.04305e-014
lhumerus -64.2756 27.9973 57.1302
lradius 34.1425
lwrist -0.477597
lhand -19.7026 38.2004
lfingers 7.12502
lthumb 6.62687 68.0767
rfemur -23.0546 38.893 -7.19282
rtibia 1.04121
rfoot -39.796 -37.1867
rtoes -4.31222
lfemur 8.44515 -22.0163 -40.4101
ltibia -6.68972
lfoot -12.437 16.7639
ltoes -67.6774
342
root -35.3395 15.5822 2.68468 -176.706 29.4253 175.2
lowerback 6.5601 -1.49408 -13.8557
upperback -10.1935 -2.45798 6.88215
thorax -13.9866 1.16021 16.2299
lowerneck -22.8405 1.49763 -1.06968
upperneck 40.8836 7.03724 -2.31922
head 19.9023 3.2249 1.04284
rclavicle 1.90833e-014 1.59028e-015
rhumerus 12.3859 63.5808 -40.4148
rradius 139.311
rwrist -38.5703
rhand 4.45635 -11.6948
rfingers 7.12502
rthumb 29.8513 -39.3089
lclavicle 1.90833e-014 1.59028e-015
lhumerus -63.5946 27.897 57.845
lradius 34.2754
lwrist -0.686545
lhand -18.8677 38.2907
lfingers 7.12502
lthumb 7.43282 68.1401
rfemur -22.8115 38.8717 -7.59942
rtibia 0.522579
rfoot -42.1007 -36.633
rtoes -0.742249
lfemur 8.78049 -22.1696 -40.8981
ltibia -7.17133
lfoot -12.2633 17.208
ltoes -67.8181
343
root -35.3451 15.5749 2.64765 -177.086 29.6412 174.535
lowerback 6.03657 -1.67272 -14.4376
upperback -9.84988 -2.76526 6.54246
thorax -13.669 1.01839 16.4118
lowerneck -22.7096 1.48486 -1.08645
upperneck 40.8599 6.80677 -1.94281
head 19.8141 3.18283 1.16819
rclavicle -2.26615e-014 6.52014e-014
rhumerus 11.8721 63.875 -41.3024
rradius 139.18
rwrist -37.5922
rhand 3.54037 -11.2688
rfingers 7.12502
rthumb 28.9768 -39.0365
lclavicle -2.26615e-014 6.52014e-014
lhumerus -62.9332 28.0016 58.1674
lradius 34.4693
lwrist -0.821551
lhand -21.5198 40.1063
lfingers 7.12502
lthumb 4.8724 70.0302
rfemur -22.1089 38.5063 -8.03326
rtibia -0.262126
rfoot -41.4752 -37.4645
rtoes -2.50317
lfemur 9.14199 -21.4072 -41.6157
ltibia -7.72665
lfoot -11.6099 16.696
ltoes -68.0507
344
root -35.3498 15.5701 2.61078 -177.479 29.9006 173.816
lowerback 5.76613 -1.78911 -14.9091
upperback -9.91065 -2.99961 6.23529
thorax -13.4875 0.90487 16.3221
lowerneck -22.4611 1.44667 -1.09586
upperneck 41.0104 6.58419 -1.52561
head 19.8055 3.16769 1.32208
rclavicle -3.1408e-014 2.38542e-014
rhumerus 11.3758 64.0632 -42.282
rradius 138.927
rwrist -37.1515
rhand 2.86382 -11.1265
rfingers 7.12502
rthumb 28.3304 -39.0034
lclavicle -3.1408e-014 2.38542e-014
lhumerus -62.3841 27.5642 58.7098
lradius 34.8489
lwrist -0.54099
lhand -20.8313 38.3869
lfingers 7.12502
lthumb 5.53723 68.2946
rfemur -21.5403 38.685 -8.7376
rtibia -1.01997
rfoot -41.7862 -38.9399
rtoes -4.97789
lfemur 9.34715 -20.5121 -42.3011
ltibia -8.14175
lfoot -10.9816 15.9903
ltoes -68.1566
345
root -35.3477 15.5661 2.57394 -177.845 30.1873 173.276
lowerback 5.58922 -1.86349 -15.2876
upperback -9.988 -3.16075 5.98637
thorax -13.4144 0.840155 16.2487
lowerneck -22.1941 1.37865 -1.15755
upperneck 41.252 6.37122 -1.10075
head 19.851 3.15615 1.49772
rclavicle 4.37326e-014 -2.70347e-014
rhumerus 10.6133 64.1528 -43.4718
rradius 138.663
rwrist -36.9944
rhand 2.71499 -11.2146
rfingers 7.12502
rthumb 28.1882 -39.1151
lclavicle 4.37326e-014 -2.70347e-014
lhumerus -61.9229 26.826 59.4527
lradius 35.4271
lwrist 0.0679483
lhand -21.216 37.9
lfingers 7.12502
lthumb 5.16582 67.817
rfemur -20.9794 39.3355 -9.31629
rtibia -1.6785
rfoot -45.3788 -39.328
rtoes -1.99701
lfemur 9.70879 -20.0286 -42.9341
ltibia -8.50415
lfoot -10.7082 15.7459
ltoes -68.0178
346
root -35.3468 15.5658 2.55051 -177.877 30.6117 173.224
lowerback 5.26863 -1.91484 -15.4121
upperback -9.96961 -3.20199 5.94667
thorax -13.1733 0.797467 16.2485
lowerneck -22.033 1.28697 -1.27588
upperneck 41.3551 6.13787 -0.764725
head 19.8432 3.10225 1.62993
rclavicle 4.29375e-014 -9.85972e-014
rhumerus 10.2945 64.0102 -44.055
rradius 138.433
rwrist -36.9442
rhand 2.58345 -11.0796
rfingers 7.12502
rthumb 28.0624 -39.0007
lclavicle 4.29375e-014 -9.85972e-014
lhumerus -61.3089 26.4539 60.1335
lradius 35.8779
lwrist 0.556719
lhand -21.5167 37.929
lfingers 7.12502
lthumb 4.87543 67.8529
rfemur -20.9434 40.0989 -9.569
rtibia -1.96141
rfoot -47.094 -40.1177
rtoes -0.184085
lfemur 10.1511 -20.7604 -43.3002
ltibia -8.8684
lfoot -10.9987 16.7484
ltoes -67.7095
347
root -35.3521 15.5703 2.54523 -177.546 31.2124 173.552
lowerback 4.82614 -1.93539 -15.2915
upperback -9.90612 -3.13023 6.03634
thorax -12.8417 0.781617 16.2338
lowerneck -21.9603 1.21647 -1.35442
upperneck 41.3146 5.89574 -0.487181
head 19.7744 3.03049 1.71727
rclavicle 3.18055e-014 -6.36111e-015
rhumerus 10.8724 63.6775 -43.7679
rradius 138.226
rwrist -36.8892
rhand 2.13665 -11.0463
rfingers 7.12502
rthumb 27.6353 -39.0366
lclavicle 3.18055e-014 -6.36111e-015
lhumerus -60.6283 26.603 60.5166
lradius 36.2118
lwrist 0.628168
lhand -21.6423 37.971
lfingers 7.12502
lthumb 4.7542 67.8977
rfemur -21.6451 40.6049 -9.75154
rtibia -1.93787
rfoot -48.2144 -40.3073
rtoes 0.846981
lfemur 10.3095 -22.0439 -43.2681
ltibia -9.02839
lfoot -11.7134 18.3283
ltoes -67.4846
